PathFileType  4	(X/Y/Z) C:\Users\HPL 1\Documents/Temp/Sub278498/Files_W_HJCs/
DataRate	CameraRate	NumFrames	NumMarkers	Units	OrigDataRate	OrigDataStartFrame	OrigNumFrames
50.0	50.0	6	42	mm	50.0	1	571
Frame#	Time  	r_knee			r_shank(antsup)			r_ankle			r_calc			r_5meta			r_toe			L_knee			L_shank(ant_sup)			L_ankle			L_calc			L_5meta			L_toe			r_mknee			r_mankle			L_mknee			L_mankle			r_sh2			r_sh3			r_sh4			L_sh2			L_sh3			r_thigh1			r_thigh2			r_thigh3			r_thigh4			r_thigh5			L_thigh1			L_thigh2			L_thigh3			L_thigh4			r.ASIS			r.PSIS			L.ASIS			L.PSIS			C7			R_Shoulder			L_Shoulder			Sternum			R_HJC			L_HJC			R_HJC_reg			L_HJC_reg			
		X1	Y1	Z1	X2	Y2	Z2	X3	Y3	Z3	X4	Y4	Z4	X5	Y5	Z5	X6	Y6	Z6	X7	Y7	Z7	X8	Y8	Z8	X9	Y9	Z9	X10	Y10	Z10	X11	Y11	Z11	X12	Y12	Z12	X13	Y13	Z13	X14	Y14	Z14	X15	Y15	Z15	X16	Y16	Z16	X17	Y17	Z17	X18	Y18	Z18	X19	Y19	Z19	X20	Y20	Z20	X21	Y21	Z21	X22	Y22	Z22	X23	Y23	Z23	X24	Y24	Z24	X25	Y25	Z25	X26	Y26	Z26	X27	Y27	Z27	X28	Y28	Z28	X29	Y29	Z29	X30	Y30	Z30	X31	Y31	Z31	X32	Y32	Z32	X33	Y33	Z33	X34	Y34	Z34	X35	Y35	Z35	X36	Y36	Z36	X37	Y37	Z37	X38	Y38	Z38	X39	Y39	Z39	X40	Y40	Z40	X41	Y41	Z41	X42	Y42	Z42	

1	0.00000	775.36896	574.23169	-565.22711	782.79364	488.74426	-557.78558	711.20575	115.18472	-570.67828	626.17535	72.25220	-622.94910	816.75616	39.60248	-529.55853	863.71649	72.74200	-587.50879	803.96179	559.89313	-853.24530	826.82263	440.36661	-843.09668	700.76917	113.99848	-808.09802	622.28912	75.07455	-754.21667	814.03510	41.61314	-849.49951	860.71399	68.81149	-793.34778	778.77051	554.04828	-691.13385	732.70203	120.30053	-664.85297	839.27777	560.43286	-730.73480	731.99963	123.71334	-718.55499	773.34131	369.02347	-557.76831	707.05945	492.25427	-552.34674	690.48468	377.14047	-550.79614	741.00824	468.28210	-861.66138	715.86603	349.26068	-850.65179	857.97833	897.93677	-552.85822	854.84387	782.14233	-551.83002	811.49323	750.65979	-536.56097	745.08893	892.76520	-534.47137	749.70593	774.26404	-545.75922	857.24542	832.18121	-901.54858	875.36267	695.78424	-887.08112	742.18292	818.40936	-901.44409	763.30194	686.71460	-877.40167	884.64014	1091.76855	-612.40948	686.98413	1124.71619	-685.34937	863.97595	1085.68774	-867.31232	683.71497	1121.35498	-767.43909	758.17426	1612.10535	-764.99146	808.85620	1581.91528	-606.22040	795.90918	1578.79883	-947.13879	892.59381	1527.77893	-772.24976	812.55088	1004.36055	-613.63483	793.73874	998.67263	-849.18093	806.93937	1016.64399	-642.35923	800.22656	1009.74218	-810.91998
2	0.02000	776.29108	574.60669	-566.50378	784.05304	488.78470	-558.66821	711.23407	115.34219	-570.73767	626.18713	72.33877	-623.00128	816.70990	39.62315	-529.62701	863.65979	72.81348	-587.53021	801.44952	560.33978	-854.38843	824.58533	440.70825	-844.24500	700.65698	113.76946	-808.23358	622.23645	74.92907	-754.24695	814.06488	41.54338	-849.57410	860.70490	68.71188	-793.42108	780.05359	553.82825	-692.26514	732.85986	120.35982	-664.89355	837.87744	561.31378	-731.64197	731.70782	123.64904	-718.72729	774.23077	369.05530	-558.43512	708.44421	492.61752	-553.57031	691.46320	377.68085	-551.67889	738.46283	468.05078	-862.66583	713.22382	348.29486	-850.61572	857.88159	898.29926	-554.28174	855.30701	782.55060	-553.02704	811.82129	750.92596	-537.58136	745.00494	892.81177	-536.12494	750.09229	774.53198	-547.59381	856.12695	832.45587	-902.91504	873.70673	695.87238	-888.10260	740.63727	818.84369	-903.30890	761.83301	687.09418	-878.35938	884.67126	1092.05664	-614.48047	686.87347	1124.97754	-686.77179	863.71808	1086.11145	-869.40704	684.07385	1121.31995	-768.65961	758.14618	1612.41187	-766.78015	808.91650	1581.93213	-607.88989	795.54797	1578.73389	-948.90472	892.36383	1527.68237	-774.09894	812.93435	1004.56645	-615.46553	793.59705	998.98408	-850.97162	806.30919	1017.35756	-644.54188	800.54508	1009.82699	-813.13988
3	0.04000	777.90308	574.87659	-567.57874	785.75574	488.78568	-559.49792	711.22699	115.51201	-570.72400	626.16125	72.36478	-623.03149	816.65253	39.69039	-529.68170	863.51672	72.95486	-587.56555	798.72058	560.84528	-855.63574	822.04077	441.14459	-845.55493	700.46356	113.57150	-808.53613	622.18768	74.85351	-754.34515	814.00208	41.45266	-849.63971	860.66156	68.60869	-793.58148	782.81641	553.66150	-693.42999	732.91266	120.50954	-664.95142	834.35999	561.63586	-732.90021	731.58838	123.72199	-719.12024	775.33911	369.14462	-558.92273	710.14728	492.98032	-554.76807	692.60010	378.14996	-552.61847	735.65094	467.85400	-863.66901	712.79248	347.51501	-851.48285	857.84009	898.70746	-555.63745	855.61957	782.92908	-554.30725	812.10199	751.16541	-538.96136	744.84601	892.92285	-537.72717	750.43799	774.65356	-549.15363	854.95026	832.82062	-904.30701	871.61676	696.35016	-889.50159	739.58777	819.90601	-904.78278	759.77637	688.25378	-879.95844	884.38361	1092.33191	-616.29462	686.58502	1125.25012	-688.36505	862.97040	1086.36218	-871.32733	683.79663	1121.68530	-770.13007	758.29968	1612.79065	-768.31982	808.92242	1582.00281	-609.56445	795.11481	1578.68506	-950.48682	892.24615	1527.72180	-775.88812	812.69119	1004.84032	-617.22331	792.94737	999.27019	-852.69595	805.85739	1017.43578	-646.44255	800.10425	1010.08067	-815.14412
4	0.06000	780.06726	575.00720	-568.57074	788.11743	488.65674	-560.44476	711.13544	115.64913	-570.81256	626.11700	72.33949	-623.05176	816.62787	39.76411	-529.73730	863.37762	73.11020	-587.59802	795.71735	561.48480	-856.97406	819.35919	441.54535	-846.85931	700.31848	113.40770	-808.86493	622.14374	74.70779	-754.46893	814.02808	41.40583	-849.74133	860.63177	68.54989	-793.71167	785.55737	553.58325	-694.66260	732.90149	120.58481	-664.97736	829.80164	562.01788	-734.49158	731.33972	123.77830	-719.49603	776.79535	368.96008	-559.46045	712.53693	493.31873	-555.92072	694.26648	378.47223	-553.49731	733.02954	467.85538	-865.13080	709.77991	348.17813	-852.73718	857.50922	898.97882	-556.57660	855.51831	783.16956	-555.66882	812.39905	751.25970	-540.26746	744.65863	892.79651	-539.06329	750.64502	774.40906	-550.23840	853.75189	833.34528	-905.65930	869.71802	696.66217	-890.78705	738.02307	821.08356	-906.38513	757.44952	689.12830	-881.43311	883.92017	1092.53894	-617.83636	686.25385	1125.55542	-689.57721	861.86993	1086.47217	-872.91382	682.47955	1122.31799	-771.54974	758.63403	1613.14319	-769.77051	808.91168	1582.13660	-611.03296	794.82849	1578.78638	-951.99493	892.11371	1527.82727	-777.53235	812.00930	1005.13323	-618.71491	791.71003	999.53403	-854.13963	806.17443	1017.20106	-647.46546	798.40615	1010.53776	-816.18174
5	0.08000	782.71796	575.04089	-569.57739	791.20508	488.32886	-561.30408	711.33936	115.84867	-570.84808	626.21277	72.58439	-623.07037	816.64252	39.73879	-529.78040	863.39105	73.13192	-587.59174	792.90839	562.13867	-858.12933	816.68329	442.12732	-847.87054	700.14050	113.21421	-809.25867	622.06665	74.62990	-754.55823	813.98309	41.30558	-849.86749	860.91138	68.85172	-793.71375	790.65686	553.56140	-695.37738	733.20276	120.73315	-665.08160	823.43011	561.33594	-736.89355	732.14496	124.61089	-719.70697	779.11981	368.87851	-559.96918	715.66461	493.57755	-556.86499	696.62085	378.82654	-554.20129	730.10138	467.82553	-866.29565	708.07977	347.89618	-853.72137	857.18542	899.29340	-557.75256	855.91211	783.56036	-556.99719	813.03656	751.22449	-541.48657	744.32452	892.40833	-540.37329	750.88745	774.11945	-551.70001	852.52069	833.83710	-906.84869	867.72961	697.18549	-892.07526	736.84778	821.98730	-908.10596	755.90601	690.16980	-883.07501	883.10480	1092.73901	-619.18951	685.53723	1125.90283	-690.87555	861.11298	1086.86780	-874.28796	681.57764	1122.96448	-773.05969	758.77972	1613.56030	-771.19556	808.80444	1582.35095	-612.46619	794.34576	1579.10718	-953.47919	891.96771	1528.01294	-778.94183	811.07700	1005.38475	-620.18560	790.82314	1000.02503	-855.61981	805.60352	1017.11399	-648.95361	797.47417	1011.08132	-817.68409
6	0.10000	785.94910	575.28564	-570.46741	794.84729	488.27328	-562.23383	711.69659	116.13432	-570.91528	626.38092	72.94546	-623.11194	816.72406	39.76862	-529.90118	863.54364	73.06748	-587.57184	789.83759	562.66528	-859.01929	814.00745	442.64230	-848.79126	699.92126	113.06599	-809.50970	621.99695	74.45691	-754.63440	813.93628	41.22024	-849.92297	860.87268	68.82091	-793.82568	794.18634	553.61469	-696.44147	733.52130	120.91068	-665.21460	821.05444	562.20789	-737.44092	731.97571	124.57372	-720.05475	781.89545	368.85471	-560.67230	719.17902	493.99399	-557.73492	699.40381	379.42334	-554.91351	727.14392	467.73550	-867.03351	705.65112	347.85355	-854.19849	856.77704	899.73987	-558.70721	856.68390	784.14996	-557.87085	813.85468	751.29572	-542.60522	743.82965	891.94177	-541.50427	751.59973	773.72076	-553.30566	851.29950	834.32831	-907.78326	865.69855	697.49902	-892.99426	735.30621	822.87677	-909.67920	754.28442	690.83435	-884.55322	881.95447	1092.93494	-620.24274	684.55530	1126.11316	-692.03699	860.78931	1087.61328	-875.42627	681.75836	1123.10242	-774.01984	758.89587	1613.96582	-772.38464	808.58612	1582.61597	-613.71594	794.02191	1579.43018	-954.59808	891.85126	1528.21570	-780.09985	810.35949	1005.46667	-621.42817	790.62246	1000.63167	-856.91762	803.65997	1017.59760	-650.92222	797.90035	1011.39770	-819.74619
